<?xml version="1.0" encoding="UTF-8"?>
<svg xmlns="http://www.w3.org/2000/svg" xmlns:xlink="http://www.w3.org/1999/xlink" width="30px" height="30px" viewBox="0 0 30 30" version="1.1">
<g id="surface1">
<path style=" stroke:none;fill-rule:nonzero;fill:rgb(85.882354%,85.882354%,85.882354%);fill-opacity:1;" d="M 15.042969 0.390625 C 6.96875 0.390625 0.421875 6.933594 0.421875 15.007812 C 0.421875 17.273438 0.9375 19.410156 1.859375 21.324219 C 1.859375 21.328125 1.859375 21.328125 1.859375 21.328125 C 1.859375 21.332031 1.859375 21.332031 1.859375 21.332031 C 1.863281 21.339844 1.867188 21.347656 1.867188 21.355469 C 1.875 21.351562 1.875 21.351562 1.875 21.351562 C 1.972656 21.496094 2.261719 21.46875 2.53125 21.332031 C 2.804688 21.191406 2.933594 20.933594 2.851562 20.765625 C 2.027344 19.015625 1.5625 17.066406 1.5625 15.007812 C 1.5625 7.5625 7.597656 1.53125 15.042969 1.53125 C 22.484375 1.53125 28.519531 7.566406 28.519531 15.007812 C 28.519531 22.449219 22.484375 28.488281 15.042969 28.488281 C 12.664062 28.488281 10.433594 27.867188 8.496094 26.789062 C 8.492188 26.785156 8.488281 26.777344 8.484375 26.777344 C 8.332031 26.660156 8.058594 26.769531 7.867188 27.019531 C 7.679688 27.261719 7.6875 27.585938 7.828125 27.707031 C 7.828125 27.710938 7.824219 27.710938 7.824219 27.71875 C 9.953125 28.929688 12.417969 29.625 15.042969 29.625 C 23.113281 29.625 29.660156 23.082031 29.660156 15.007812 C 29.65625 6.9375 23.113281 0.390625 15.042969 0.390625 Z M 15.042969 0.390625 "/>
<path style=" stroke:none;fill-rule:nonzero;fill:rgb(85.882354%,85.882354%,85.882354%);fill-opacity:1;" d="M 3.808594 24.417969 C 3.808594 24.847656 4.15625 25.195312 4.585938 25.195312 C 5.015625 25.195312 5.363281 24.847656 5.363281 24.417969 C 5.363281 23.988281 5.015625 23.640625 4.585938 23.640625 C 4.15625 23.640625 3.808594 23.988281 3.808594 24.417969 Z M 3.808594 24.417969 "/>
<path style=" stroke:none;fill-rule:nonzero;fill:rgb(85.882354%,85.882354%,85.882354%);fill-opacity:1;" d="M 21.394531 8.304688 L 17.023438 5.652344 C 16.898438 5.574219 16.757812 5.550781 16.621094 5.550781 C 16.597656 5.546875 16.582031 5.535156 16.554688 5.535156 C 16.515625 5.535156 16.480469 5.550781 16.445312 5.558594 C 16.4375 5.558594 16.429688 5.5625 16.421875 5.5625 C 16.085938 5.625 15.832031 5.890625 15.832031 6.222656 L 15.832031 16.332031 C 14.84375 15.824219 13.453125 15.675781 12 16.039062 C 9.546875 16.652344 7.882812 18.464844 8.289062 20.085938 C 8.691406 21.710938 11.011719 22.53125 13.464844 21.917969 C 15.835938 21.328125 17.492188 19.53125 17.246094 17.953125 C 17.296875 17.859375 17.28125 17.851562 17.28125 17.738281 L 17.28125 7.644531 L 20.578125 9.644531 C 20.953125 9.871094 21.433594 9.75 21.65625 9.382812 C 21.882812 9.011719 21.761719 8.53125 21.394531 8.304688 Z M 13.1875 20.792969 C 11.574219 21.195312 10.0625 20.710938 9.8125 19.707031 C 9.5625 18.703125 10.667969 17.566406 12.28125 17.160156 C 13.894531 16.757812 15.40625 17.246094 15.65625 18.25 C 15.902344 19.253906 14.800781 20.390625 13.1875 20.792969 Z M 13.1875 20.792969 "/>
</g>
</svg>
